<svg width="101" height="20" viewBox="0 0 101 20" fill="none" xmlns="http://www.w3.org/2000/svg">
<rect width="101" height="20" rx="10" fill="white" fill-opacity="0.6"/>
<path d="M8.83 8.64C9.1 8.1 9.49 7.69 10 7.39C10.5 7.09 11.09 6.94 11.76 6.94C12.53 6.94 13.18 7.15 13.7 7.57C14.22 7.99 14.55 8.57 14.69 9.29H13.82C13.69 8.81 13.44 8.43 13.07 8.15C12.7 7.88 12.25 7.74 11.72 7.74C11.24 7.74 10.81 7.86 10.45 8.09C10.08 8.33 9.8 8.65 9.6 9.07C9.4 9.49 9.31 9.96 9.31 10.5C9.31 11.04 9.4 11.51 9.6 11.93C9.8 12.35 10.08 12.68 10.45 12.91C10.81 13.15 11.24 13.26 11.72 13.26C12.26 13.26 12.71 13.13 13.07 12.86C13.43 12.59 13.67 12.21 13.81 11.71H14.68C14.54 12.44 14.22 13.01 13.7 13.43C13.18 13.85 12.54 14.06 11.76 14.06C11.09 14.06 10.5 13.92 10 13.62C9.49 13.32 9.1 12.91 8.83 12.37C8.55 11.83 8.42 11.21 8.42 10.5C8.42 9.8 8.55 9.18 8.83 8.64ZM20.2296 13.25V14H19.7796C19.4496 14 19.2196 13.94 19.0796 13.8C18.9396 13.67 18.8596 13.47 18.8596 13.21C18.4596 13.78 17.8896 14.06 17.1496 14.06C16.5796 14.06 16.1196 13.93 15.7796 13.66C15.4396 13.4 15.2696 13.03 15.2696 12.57C15.2696 12.06 15.4396 11.67 15.7896 11.39C16.1396 11.12 16.6496 10.98 17.3196 10.98H18.8196V10.63C18.8196 10.3 18.6996 10.04 18.4796 9.85C18.2596 9.67 17.9496 9.57 17.5496 9.57C17.1896 9.57 16.8996 9.65 16.6696 9.81C16.4396 9.97 16.2996 10.17 16.2496 10.43H15.4296C15.4896 9.93 15.7096 9.54 16.0896 9.26C16.4696 8.98 16.9696 8.84 17.5896 8.84C18.2396 8.84 18.7396 9 19.0996 9.32C19.4596 9.64 19.6396 10.09 19.6396 10.68V12.88C19.6396 13.13 19.7496 13.25 19.9796 13.25H20.2296ZM18.8196 11.67H17.2396C16.4796 11.67 16.0996 11.96 16.0996 12.52C16.0996 12.78 16.1996 12.98 16.3996 13.13C16.5996 13.29 16.8696 13.36 17.2096 13.36C17.7096 13.36 18.0996 13.23 18.3896 12.97C18.6696 12.71 18.8196 12.36 18.8196 11.92V11.67ZM21.3 12.32C21.31 12.63 21.44 12.88 21.7 13.07C21.96 13.27 22.29 13.36 22.7 13.36C23.06 13.36 23.35 13.29 23.57 13.15C23.79 13.01 23.91 12.82 23.91 12.58C23.91 12.38 23.85 12.23 23.75 12.12C23.64 12.02 23.5 11.94 23.33 11.9C23.16 11.86 22.92 11.82 22.61 11.78C22.17 11.73 21.81 11.66 21.53 11.57C21.25 11.49 21.02 11.35 20.85 11.16C20.67 10.97 20.59 10.71 20.59 10.37C20.59 10.07 20.67 9.81 20.84 9.57C21.01 9.34 21.24 9.16 21.54 9.03C21.83 8.9 22.16 8.83 22.53 8.83C23.13 8.83 23.61 8.97 23.99 9.25C24.37 9.53 24.58 9.93 24.62 10.45H23.8C23.76 10.19 23.63 9.97 23.41 9.79C23.18 9.62 22.9 9.53 22.56 9.53C22.21 9.53 21.93 9.61 21.72 9.75C21.5 9.89 21.4 10.08 21.4 10.31C21.4 10.49 21.45 10.62 21.55 10.71C21.65 10.81 21.77 10.87 21.93 10.9C22.09 10.94 22.33 10.97 22.65 11.01C23.09 11.07 23.46 11.14 23.75 11.23C24.04 11.33 24.27 11.48 24.45 11.68C24.63 11.89 24.72 12.17 24.72 12.52C24.72 12.83 24.63 13.1 24.45 13.33C24.27 13.57 24.02 13.75 23.72 13.87C23.41 14 23.07 14.06 22.7 14.06C22.03 14.06 21.49 13.91 21.09 13.6C20.69 13.3 20.48 12.87 20.48 12.32H21.3ZM29.4502 9.4C29.8302 9.78 30.0202 10.36 30.0202 11.16V14H29.2002V11.21C29.2002 10.69 29.0802 10.29 28.8402 10.01C28.6002 9.73 28.2502 9.59 27.8102 9.59C27.3302 9.59 26.9602 9.76 26.6802 10.09C26.4002 10.43 26.2702 10.88 26.2702 11.45V14H25.4502V7H26.2702V9.74C26.4302 9.48 26.6502 9.26 26.9302 9.09C27.2102 8.93 27.5502 8.84 27.9502 8.84C28.5702 8.84 29.0702 9.03 29.4502 9.4ZM34.6955 9.15C35.0655 9.36 35.3555 9.66 35.5655 10.05C35.7755 10.45 35.8855 10.91 35.8855 11.45C35.8855 11.97 35.7755 12.42 35.5655 12.81C35.3555 13.21 35.0655 13.51 34.6955 13.73C34.3155 13.95 33.8955 14.06 33.4355 14.06C33.0155 14.06 32.6655 13.99 32.3755 13.84C32.0755 13.69 31.8455 13.48 31.6855 13.22L31.5755 14H30.8655V7H31.6855V9.72C32.1055 9.14 32.6955 8.84 33.4355 8.84C33.9055 8.84 34.3255 8.95 34.6955 9.15ZM34.5755 12.81C34.8855 12.46 35.0455 12.01 35.0455 11.45C35.0455 10.9 34.8855 10.45 34.5755 10.1C34.2655 9.75 33.8555 9.57 33.3555 9.57C33.0255 9.57 32.7355 9.65 32.4755 9.81C32.2155 9.97 32.0255 10.19 31.8855 10.47C31.7455 10.75 31.6755 11.07 31.6755 11.43C31.6755 11.8 31.7455 12.13 31.8855 12.42C32.0255 12.71 32.2155 12.93 32.4755 13.09C32.7355 13.25 33.0255 13.33 33.3555 13.33C33.8555 13.33 34.2655 13.16 34.5755 12.81ZM41.3925 13.25V14H40.9425C40.6125 14 40.3825 13.94 40.2425 13.8C40.1025 13.67 40.0225 13.47 40.0225 13.21C39.6225 13.78 39.0525 14.06 38.3125 14.06C37.7425 14.06 37.2825 13.93 36.9425 13.66C36.6025 13.4 36.4325 13.03 36.4325 12.57C36.4325 12.06 36.6025 11.67 36.9525 11.39C37.3025 11.12 37.8125 10.98 38.4825 10.98H39.9825V10.63C39.9825 10.3 39.8625 10.04 39.6425 9.85C39.4225 9.67 39.1125 9.57 38.7125 9.57C38.3525 9.57 38.0625 9.65 37.8325 9.81C37.6025 9.97 37.4625 10.17 37.4125 10.43H36.5925C36.6525 9.93 36.8725 9.54 37.2525 9.26C37.6325 8.98 38.1325 8.84 38.7525 8.84C39.4025 8.84 39.9025 9 40.2625 9.32C40.6225 9.64 40.8025 10.09 40.8025 10.68V12.88C40.8025 13.13 40.9125 13.25 41.1425 13.25H41.3925ZM39.9825 11.67H38.4025C37.6425 11.67 37.2625 11.96 37.2625 12.52C37.2625 12.78 37.3625 12.98 37.5625 13.13C37.7625 13.29 38.0325 13.36 38.3725 13.36C38.8725 13.36 39.2625 13.23 39.5525 12.97C39.8325 12.71 39.9825 12.36 39.9825 11.92V11.67ZM45.6229 13.58C45.2229 13.9 44.7229 14.06 44.1229 14.06C43.6229 14.06 43.1929 13.95 42.8229 13.73C42.4429 13.51 42.1529 13.21 41.9529 12.81C41.7429 12.41 41.6429 11.96 41.6429 11.44C41.6429 10.93 41.7429 10.48 41.9529 10.08C42.1629 9.69 42.4629 9.39 42.8429 9.17C43.2229 8.95 43.6529 8.84 44.1529 8.84C44.7529 8.84 45.2429 9 45.6329 9.32C46.0229 9.64 46.2729 10.08 46.3729 10.64H45.5429C45.4629 10.32 45.2929 10.06 45.0429 9.86C44.7829 9.67 44.4829 9.57 44.1229 9.57C43.6329 9.57 43.2329 9.75 42.9329 10.09C42.6329 10.44 42.4829 10.89 42.4829 11.44C42.4829 12 42.6329 12.46 42.9329 12.81C43.2329 13.16 43.6329 13.33 44.1229 13.33C44.4929 13.33 44.8029 13.24 45.0629 13.04C45.3129 12.85 45.4729 12.58 45.5529 12.24H46.3729C46.2629 12.81 46.0129 13.26 45.6229 13.58ZM47.1209 7H47.9409V11.64L50.5309 8.9H51.5109L49.5509 10.99L51.6509 14H50.6609L48.9609 11.58L47.9409 12.65V14H47.1209V7Z" fill="#282828"/>
<path d="M56.6 14V7H57.96L60.93 11.41V7H62.41V14H61.04L58.07 9.59V14H56.6ZM68.132 10.94C68.412 11.22 68.562 11.59 68.562 12.05C68.562 12.45 68.442 12.81 68.222 13.11C68.002 13.41 67.682 13.65 67.272 13.81C66.852 13.98 66.372 14.06 65.832 14.06C64.992 14.06 64.332 13.85 63.852 13.43C63.362 13.01 63.122 12.42 63.122 11.67H64.552C64.552 12.06 64.682 12.37 64.942 12.59C65.192 12.82 65.512 12.93 65.912 12.93C66.252 12.93 66.532 12.84 66.752 12.66C66.972 12.48 67.092 12.24 67.092 11.93C67.092 11.65 66.982 11.43 66.762 11.27C66.542 11.11 66.222 11.03 65.812 11.03H65.122V9.88H65.732C66.112 9.88 66.412 9.8 66.622 9.63C66.832 9.46 66.942 9.23 66.942 8.94C66.942 8.67 66.842 8.46 66.652 8.3C66.452 8.15 66.202 8.07 65.892 8.07C65.552 8.07 65.272 8.17 65.052 8.35C64.832 8.54 64.712 8.79 64.712 9.11H63.302C63.302 8.44 63.532 7.91 63.992 7.52C64.452 7.14 65.062 6.94 65.832 6.94C66.632 6.94 67.262 7.11 67.712 7.45C68.162 7.79 68.392 8.25 68.392 8.81C68.392 9.23 68.262 9.56 68.012 9.82C67.762 10.08 67.432 10.26 67.022 10.36C67.472 10.47 67.842 10.66 68.132 10.94ZM68.9155 11.31L72.0055 7H73.7855V11.3H74.7555V12.5H73.7855V14H72.3755V12.5H68.9155V11.31ZM70.2855 11.3H72.3755V8.4L70.2855 11.3ZM77.5325 7V14H76.0925V9.53C76.0025 9.57 75.8725 9.58 75.7125 9.58H74.5425V8.39H75.5925C75.7625 8.39 75.8925 8.33 75.9825 8.19C76.0725 8.05 76.1225 7.88 76.1225 7.68V7H77.5325ZM78.5839 12.63C78.7439 12.47 78.9439 12.39 79.1939 12.39C79.4339 12.39 79.6339 12.47 79.7939 12.63C79.9539 12.79 80.0439 12.99 80.0439 13.23C80.0439 13.47 79.9539 13.67 79.7939 13.83C79.6339 13.99 79.4339 14.06 79.1939 14.06C78.9439 14.06 78.7439 13.99 78.5839 13.83C78.4239 13.67 78.3439 13.47 78.3439 13.23C78.3439 12.99 78.4239 12.79 78.5839 12.63ZM83.1944 10.69C83.5344 10.42 83.7844 10.17 83.9444 9.94C84.1044 9.72 84.1844 9.47 84.1844 9.2C84.1844 8.86 84.0744 8.6 83.8744 8.42C83.6744 8.24 83.4044 8.14 83.0644 8.14C82.7344 8.14 82.4644 8.25 82.2644 8.47C82.0644 8.69 81.9644 8.99 81.9644 9.36V9.47H80.5144V9.28C80.5144 8.84 80.6144 8.44 80.8244 8.08C81.0344 7.72 81.3344 7.44 81.7244 7.24C82.1044 7.04 82.5544 6.93 83.0644 6.93C83.8844 6.93 84.5144 7.13 84.9644 7.53C85.4144 7.93 85.6444 8.47 85.6444 9.14C85.6444 9.62 85.5244 10.04 85.2844 10.39C85.0444 10.74 84.6844 11.11 84.1944 11.51L82.6244 12.79H85.6744V14H80.5444V12.89L83.1944 10.69ZM86.1461 10.34C86.1461 9.66 86.2661 9.06 86.5061 8.54C86.7461 8.03 87.0861 7.64 87.5261 7.36C87.9661 7.08 88.4661 6.94 89.0261 6.94C89.5861 6.94 90.0861 7.08 90.5261 7.36C90.9661 7.64 91.3061 8.03 91.5461 8.54C91.7861 9.06 91.9161 9.66 91.9161 10.34V10.66C91.9161 11.36 91.7861 11.97 91.5461 12.48C91.3061 12.99 90.9661 13.38 90.5261 13.65C90.0861 13.93 89.5861 14.06 89.0261 14.06C88.4561 14.06 87.9561 13.93 87.5261 13.65C87.0861 13.38 86.7461 12.99 86.5061 12.48C86.2661 11.97 86.1461 11.36 86.1461 10.66V10.34ZM90.0761 8.75C89.8161 8.36 89.4661 8.16 89.0261 8.16C88.5861 8.16 88.2361 8.36 87.9761 8.75C87.7161 9.14 87.5861 9.69 87.5861 10.39V10.61C87.5861 11.32 87.7161 11.87 87.9761 12.26C88.2361 12.65 88.5861 12.84 89.0261 12.84C89.4661 12.84 89.8161 12.65 90.0761 12.26C90.3361 11.87 90.4761 11.32 90.4761 10.61V10.39C90.4761 9.69 90.3361 9.14 90.0761 8.75Z" fill="url(#paint0_linear_1_118)"/>
<defs>
<linearGradient id="paint0_linear_1_118" x1="81.0627" y1="33.875" x2="66.3424" y2="23.8334" gradientUnits="userSpaceOnUse">
<stop stop-color="#EFA058"/>
<stop offset="1" stop-color="#EF5858"/>
</linearGradient>
</defs>
</svg>
