<svg width="16" height="10" viewBox="0 0 16 10" fill="none" xmlns="http://www.w3.org/2000/svg">
<path d="M1.6901 6.33411C3.02468 7.66088 5.35215 9.49994 8.00014 9.49994C10.6481 9.49994 12.9752 7.66088 14.3097 6.33411C14.6617 5.9842 14.8383 5.80864 14.9504 5.46509C15.0303 5.21996 15.0303 4.78005 14.9504 4.53493C14.8383 4.19136 14.6617 4.01578 14.3097 3.66583C12.9752 2.33906 10.6481 0.5 8.00014 0.5C5.35215 0.5 3.02468 2.33906 1.6901 3.66583C1.33785 4.01602 1.16171 4.19124 1.0496 4.53493C0.969633 4.78005 0.969633 5.21996 1.0496 5.46509C1.16171 5.80878 1.33785 5.98392 1.6901 6.33411Z" stroke="white" stroke-width="0.75" stroke-linecap="round" stroke-linejoin="round"/>
<path d="M6.5 5C6.5 5.82843 7.17157 6.5 8 6.5C8.82843 6.5 9.5 5.82843 9.5 5C9.5 4.17157 8.82843 3.5 8 3.5C7.17157 3.5 6.5 4.17157 6.5 5Z" stroke="white" stroke-width="0.75" stroke-linecap="round" stroke-linejoin="round"/>
</svg>
