<svg width="137" height="69" viewBox="0 0 137 69" fill="none" xmlns="http://www.w3.org/2000/svg">
<path d="M0 8C0 3.58172 3.58172 0 8 0H137V61C137 65.4183 133.418 69 129 69H0V8Z" fill="white" fill-opacity="0.2"/>
<path d="M11.68 14H12.78L15.26 19.81L17.71 14H18.79V21H17.94V15.48L15.62 21H14.85L12.53 15.48V21H11.68V14ZM25.9368 19.33C25.6568 19.87 25.2568 20.3 24.7568 20.6C24.2468 20.91 23.6668 21.06 23.0268 21.06C22.3768 21.06 21.7968 20.91 21.2968 20.6C20.7868 20.3 20.3868 19.87 20.1068 19.33C19.8268 18.79 19.6868 18.18 19.6868 17.5C19.6868 16.82 19.8268 16.21 20.1068 15.67C20.3868 15.13 20.7868 14.71 21.2968 14.4C21.7968 14.1 22.3768 13.94 23.0268 13.94C23.6668 13.94 24.2468 14.1 24.7568 14.4C25.2568 14.71 25.6568 15.13 25.9368 15.67C26.2168 16.21 26.3668 16.82 26.3668 17.5C26.3668 18.18 26.2168 18.79 25.9368 19.33ZM20.8868 18.93C21.0868 19.35 21.3768 19.67 21.7468 19.91C22.1168 20.15 22.5468 20.26 23.0268 20.26C23.5068 20.26 23.9268 20.15 24.2968 19.91C24.6668 19.67 24.9568 19.35 25.1668 18.93C25.3668 18.51 25.4768 18.04 25.4768 17.5C25.4768 16.97 25.3668 16.5 25.1668 16.08C24.9568 15.66 24.6668 15.34 24.2968 15.1C23.9268 14.86 23.5068 14.74 23.0268 14.74C22.5468 14.74 22.1168 14.86 21.7468 15.1C21.3768 15.34 21.0868 15.66 20.8868 16.08C20.6768 16.5 20.5768 16.97 20.5768 17.5C20.5768 18.04 20.6768 18.51 20.8868 18.93ZM27.2663 21V14H28.0663L31.8263 19.4V14H32.6763V21H31.8763L28.1163 15.6V21H27.2663ZM33.8339 14H34.7039V21H33.8339V14ZM35.8605 14H40.3205V14.8H36.7305V17.04H39.7205V17.84H36.7305V20.2H40.4505V21H35.8605V14ZM43.9169 14C44.3769 14 44.7769 14.09 45.1369 14.27C45.4869 14.45 45.7569 14.7 45.9469 15.02C46.1369 15.34 46.2369 15.72 46.2369 16.15C46.2369 16.59 46.1369 16.97 45.9469 17.29C45.7469 17.62 45.4769 17.87 45.1269 18.05C44.7769 18.23 44.3769 18.31 43.9169 18.31H42.0969V21H41.2269V14H43.9169ZM42.0969 17.51H43.8369C44.2969 17.51 44.6569 17.39 44.9369 17.14C45.2069 16.9 45.3469 16.57 45.3469 16.15C45.3469 15.74 45.2069 15.41 44.9369 15.17C44.6669 14.93 44.3069 14.8 43.8469 14.8H42.0969V17.51ZM52.9544 19.33C52.6744 19.87 52.2744 20.3 51.7744 20.6C51.2644 20.91 50.6844 21.06 50.0444 21.06C49.3944 21.06 48.8144 20.91 48.3144 20.6C47.8044 20.3 47.4044 19.87 47.1244 19.33C46.8444 18.79 46.7044 18.18 46.7044 17.5C46.7044 16.82 46.8444 16.21 47.1244 15.67C47.4044 15.13 47.8044 14.71 48.3144 14.4C48.8144 14.1 49.3944 13.94 50.0444 13.94C50.6844 13.94 51.2644 14.1 51.7744 14.4C52.2744 14.71 52.6744 15.13 52.9544 15.67C53.2344 16.21 53.3844 16.82 53.3844 17.5C53.3844 18.18 53.2344 18.79 52.9544 19.33ZM47.9044 18.93C48.1044 19.35 48.3944 19.67 48.7644 19.91C49.1344 20.15 49.5644 20.26 50.0444 20.26C50.5244 20.26 50.9444 20.15 51.3144 19.91C51.6844 19.67 51.9744 19.35 52.1844 18.93C52.3844 18.51 52.4944 18.04 52.4944 17.5C52.4944 16.97 52.3844 16.5 52.1844 16.08C51.9744 15.66 51.6844 15.34 51.3144 15.1C50.9444 14.86 50.5244 14.74 50.0444 14.74C49.5644 14.74 49.1344 14.86 48.7644 15.1C48.3944 15.34 48.1044 15.66 47.9044 16.08C47.6944 16.5 47.5944 16.97 47.5944 17.5C47.5944 18.04 47.6944 18.51 47.9044 18.93ZM54.2839 14H55.1539V21H54.2839V14ZM56.3105 21V14H57.1105L60.8705 19.4V14H61.7205V21H60.9205L57.1605 15.6V21H56.3105ZM62.448 14H67.858V14.8H65.588V21H64.718V14.8H62.448V14Z" fill="white"/>
<path d="M19.688 35.04C20.12 35.52 20.344 36.144 20.344 36.944C20.344 37.904 19.944 38.656 19.176 39.232C18.408 39.808 17.304 40.096 15.896 40.096C14.456 40.096 13.368 39.824 12.6 39.248C11.832 38.672 11.448 37.904 11.448 36.944C11.448 36.16 11.656 35.536 12.088 35.056C12.504 34.592 13.048 34.288 13.704 34.144C13.144 33.984 12.68 33.68 12.312 33.264C11.944 32.848 11.768 32.32 11.768 31.648C11.768 31.072 11.928 30.544 12.248 30.096C12.568 29.648 13.048 29.312 13.672 29.056C14.28 28.816 15.032 28.688 15.896 28.688C16.76 28.688 17.496 28.816 18.12 29.056C18.728 29.312 19.208 29.648 19.528 30.096C19.848 30.544 20.024 31.072 20.024 31.648C20.024 32.272 19.832 32.8 19.464 33.232C19.08 33.664 18.632 33.968 18.088 34.128C18.728 34.272 19.256 34.576 19.688 35.04ZM14.92 30.944C14.664 31.168 14.536 31.456 14.536 31.808C14.536 32.176 14.648 32.48 14.904 32.704C15.16 32.944 15.48 33.056 15.896 33.056C16.296 33.056 16.616 32.944 16.872 32.704C17.128 32.48 17.256 32.176 17.256 31.808C17.256 31.456 17.128 31.168 16.872 30.944C16.616 30.72 16.28 30.592 15.896 30.592C15.496 30.592 15.176 30.72 14.92 30.944ZM17.048 37.792C17.368 37.504 17.528 37.152 17.528 36.736C17.528 36.32 17.368 35.952 17.048 35.664C16.728 35.376 16.344 35.232 15.896 35.232C15.432 35.232 15.048 35.376 14.728 35.664C14.408 35.952 14.264 36.32 14.264 36.736C14.264 37.152 14.408 37.504 14.728 37.792C15.048 38.08 15.432 38.208 15.896 38.208C16.344 38.208 16.728 38.08 17.048 37.792ZM25.8849 28.8V40H23.0689V33.264H22.5409H20.6369V30.976H22.2209C22.5089 30.976 22.7169 30.864 22.8769 30.624C23.0369 30.4 23.1169 30.112 23.1169 29.76V28.8H25.8849ZM35.9741 34.24C35.9741 36.16 35.5581 37.616 34.7421 38.608C33.9101 39.6 32.7261 40.096 31.1581 40.096C29.9261 40.096 28.9501 39.808 28.2141 39.232C27.4781 38.656 27.0461 37.824 26.9181 36.736H29.6861C29.7661 37.12 29.9581 37.408 30.2461 37.6C30.5341 37.792 30.8861 37.888 31.3181 37.888C31.9261 37.888 32.4061 37.664 32.7261 37.216C33.0461 36.768 33.2061 36.096 33.2061 35.232V35.072C33.0461 35.264 32.9341 35.392 32.8701 35.456C32.3261 36 31.6061 36.272 30.7101 36.272C29.9421 36.272 29.2861 36.128 28.7101 35.808C28.1341 35.504 27.6861 35.072 27.3661 34.496C27.0461 33.936 26.8861 33.28 26.8861 32.528C26.8861 31.792 27.0621 31.12 27.4301 30.544C27.7821 29.968 28.2941 29.504 28.9501 29.184C29.6061 28.864 30.3581 28.688 31.2221 28.688C32.6941 28.688 33.8461 29.2 34.7101 30.192C35.5421 31.184 35.9741 32.544 35.9741 34.24ZM30.1181 33.696C30.4061 34.016 30.7741 34.16 31.2221 34.16C31.6701 34.16 32.0541 34.016 32.3421 33.696C32.6301 33.376 32.7741 32.976 32.7741 32.496C32.7741 32.016 32.6301 31.632 32.3421 31.312C32.0541 30.992 31.6861 30.832 31.2381 30.832C30.7901 30.832 30.4221 30.992 30.1341 31.296C29.8461 31.616 29.7021 32 29.7021 32.48C29.7021 32.976 29.8301 33.376 30.1181 33.696ZM40.7105 34.496C41.1905 34.112 41.5585 33.76 41.7825 33.44C42.0065 33.12 42.1185 32.784 42.1185 32.432C42.1185 31.984 41.9745 31.632 41.7185 31.392C41.4625 31.152 41.1105 31.024 40.6785 31.024C40.2625 31.024 39.9265 31.184 39.6705 31.488C39.3985 31.792 39.2705 32.192 39.2705 32.688V32.848H36.4225V32.528C36.4225 31.824 36.5985 31.168 36.9505 30.592C37.3025 30.016 37.7985 29.552 38.4385 29.2C39.0785 28.864 39.8305 28.688 40.6785 28.688C42.0545 28.688 43.1105 29.024 43.8465 29.68C44.5825 30.352 44.9665 31.232 44.9665 32.32C44.9665 33.088 44.7745 33.76 44.4225 34.304C44.0545 34.864 43.4785 35.456 42.7105 36.064L40.6625 37.68H45.0145V40H36.5185V37.872L40.7105 34.496ZM45.543 34.144C45.543 33.024 45.735 32.064 46.151 31.232C46.551 30.416 47.111 29.792 47.847 29.36C48.583 28.928 49.415 28.704 50.359 28.704C51.287 28.704 52.119 28.928 52.855 29.36C53.591 29.792 54.151 30.416 54.567 31.232C54.967 32.064 55.175 33.024 55.175 34.144V34.656C55.175 35.776 54.967 36.752 54.567 37.568C54.151 38.4 53.591 39.024 52.855 39.456C52.119 39.888 51.287 40.096 50.359 40.096C49.415 40.096 48.583 39.888 47.847 39.456C47.111 39.024 46.551 38.4 46.151 37.568C45.735 36.752 45.543 35.776 45.543 34.656V34.144ZM51.815 31.872C51.447 31.328 50.967 31.04 50.359 31.04C49.751 31.04 49.255 31.328 48.903 31.872C48.535 32.432 48.359 33.216 48.359 34.24V34.56C48.359 35.6 48.535 36.4 48.903 36.944C49.255 37.488 49.751 37.76 50.359 37.76C50.967 37.76 51.447 37.488 51.815 36.944C52.167 36.4 52.359 35.6 52.359 34.56V34.24C52.359 33.216 52.167 32.432 51.815 31.872ZM60.7143 28.8V40H57.8983V33.264H57.3703H55.4663V30.976H57.0503C57.3383 30.976 57.5463 30.864 57.7063 30.624C57.8663 30.4 57.9463 30.112 57.9463 29.76V28.8H60.7143ZM61.4275 28.8H69.7955V30.576L65.1875 40H62.1315L66.6915 31.136H61.4275V28.8ZM69.1581 35.488L73.7501 28.8H77.2541V35.488H78.6781V37.776H77.2541V40H74.5021V37.776H69.1581V35.488ZM71.7501 35.488H74.5021V31.44L71.7501 35.488ZM87.3624 35.04C87.7944 35.52 88.0184 36.144 88.0184 36.944C88.0184 37.904 87.6184 38.656 86.8504 39.232C86.0824 39.808 84.9784 40.096 83.5704 40.096C82.1304 40.096 81.0424 39.824 80.2744 39.248C79.5064 38.672 79.1224 37.904 79.1224 36.944C79.1224 36.16 79.3304 35.536 79.7624 35.056C80.1784 34.592 80.7224 34.288 81.3784 34.144C80.8184 33.984 80.3544 33.68 79.9864 33.264C79.6184 32.848 79.4424 32.32 79.4424 31.648C79.4424 31.072 79.6024 30.544 79.9224 30.096C80.2424 29.648 80.7224 29.312 81.3464 29.056C81.9544 28.816 82.7064 28.688 83.5704 28.688C84.4344 28.688 85.1704 28.816 85.7944 29.056C86.4024 29.312 86.8824 29.648 87.2024 30.096C87.5224 30.544 87.6984 31.072 87.6984 31.648C87.6984 32.272 87.5064 32.8 87.1384 33.232C86.7544 33.664 86.3064 33.968 85.7624 34.128C86.4024 34.272 86.9304 34.576 87.3624 35.04ZM82.5944 30.944C82.3384 31.168 82.2104 31.456 82.2104 31.808C82.2104 32.176 82.3224 32.48 82.5784 32.704C82.8344 32.944 83.1544 33.056 83.5704 33.056C83.9704 33.056 84.2904 32.944 84.5464 32.704C84.8024 32.48 84.9304 32.176 84.9304 31.808C84.9304 31.456 84.8024 31.168 84.5464 30.944C84.2904 30.72 83.9544 30.592 83.5704 30.592C83.1704 30.592 82.8504 30.72 82.5944 30.944ZM84.7224 37.792C85.0424 37.504 85.2024 37.152 85.2024 36.736C85.2024 36.32 85.0424 35.952 84.7224 35.664C84.4024 35.376 84.0184 35.232 83.5704 35.232C83.1064 35.232 82.7224 35.376 82.4024 35.664C82.0824 35.952 81.9384 36.32 81.9384 36.736C81.9384 37.152 82.0824 37.504 82.4024 37.792C82.7224 38.08 83.1064 38.208 83.5704 38.208C84.0184 38.208 84.4024 38.08 84.7224 37.792ZM92.7593 34.496C93.2393 34.112 93.6073 33.76 93.8313 33.44C94.0553 33.12 94.1673 32.784 94.1673 32.432C94.1673 31.984 94.0233 31.632 93.7673 31.392C93.5113 31.152 93.1593 31.024 92.7273 31.024C92.3113 31.024 91.9753 31.184 91.7193 31.488C91.4473 31.792 91.3193 32.192 91.3193 32.688V32.848H88.4713V32.528C88.4713 31.824 88.6473 31.168 88.9993 30.592C89.3513 30.016 89.8473 29.552 90.4873 29.2C91.1273 28.864 91.8793 28.688 92.7273 28.688C94.1033 28.688 95.1593 29.024 95.8953 29.68C96.6313 30.352 97.0153 31.232 97.0153 32.32C97.0153 33.088 96.8233 33.76 96.4713 34.304C96.1033 34.864 95.5273 35.456 94.7593 36.064L92.7113 37.68H97.0633V40H88.5673V37.872L92.7593 34.496Z" fill="white"/>
<path d="M11.68 48H13.75C14.47 48 15.09 48.15 15.62 48.44C16.15 48.73 16.56 49.14 16.84 49.66C17.12 50.19 17.27 50.8 17.27 51.5C17.27 52.2 17.12 52.81 16.84 53.34C16.56 53.87 16.15 54.28 15.62 54.57C15.09 54.86 14.47 55 13.75 55H11.68V48ZM13.75 54.2C14.58 54.2 15.23 53.96 15.69 53.47C16.15 52.99 16.38 52.33 16.38 51.5C16.38 50.67 16.15 50.01 15.69 49.53C15.23 49.05 14.59 48.8 13.75 48.8H12.55V54.2H13.75ZM18.1695 51.08C18.3695 50.69 18.6595 50.39 19.0295 50.17C19.3895 49.95 19.8095 49.84 20.2895 49.84C20.7495 49.84 21.1695 49.94 21.5295 50.13C21.8895 50.33 22.1695 50.61 22.3795 50.97C22.5795 51.34 22.6895 51.77 22.7095 52.26C22.7095 52.34 22.6995 52.45 22.6895 52.61H18.7295V52.68C18.7395 53.18 18.8895 53.58 19.1895 53.88C19.4795 54.18 19.8595 54.33 20.3395 54.33C20.6995 54.33 21.0095 54.24 21.2695 54.06C21.5295 53.88 21.6995 53.62 21.7895 53.29H22.6195C22.5195 53.81 22.2695 54.24 21.8695 54.57C21.4695 54.9 20.9795 55.06 20.3995 55.06C19.8895 55.06 19.4495 54.96 19.0695 54.74C18.6895 54.52 18.3895 54.22 18.1795 53.82C17.9695 53.42 17.8695 52.97 17.8695 52.45C17.8695 51.93 17.9695 51.48 18.1695 51.08ZM21.8595 51.93C21.8195 51.5 21.6495 51.16 21.3695 50.92C21.0895 50.68 20.7295 50.56 20.2995 50.56C19.9095 50.56 19.5695 50.69 19.2795 50.94C18.9795 51.2 18.8195 51.53 18.7795 51.93H21.8595ZM27.2752 50.15C27.6452 50.36 27.9352 50.66 28.1452 51.05C28.3552 51.45 28.4652 51.91 28.4652 52.45C28.4652 52.97 28.3552 53.42 28.1452 53.81C27.9352 54.21 27.6452 54.51 27.2752 54.73C26.8952 54.95 26.4752 55.06 26.0152 55.06C25.5952 55.06 25.2452 54.99 24.9552 54.84C24.6552 54.69 24.4252 54.48 24.2652 54.22V57H23.4452V49.9H24.1552L24.2652 50.72C24.6852 50.14 25.2752 49.84 26.0152 49.84C26.4852 49.84 26.9052 49.95 27.2752 50.15ZM27.1552 53.81C27.4652 53.46 27.6252 53.01 27.6252 52.45C27.6252 51.9 27.4652 51.45 27.1552 51.1C26.8452 50.75 26.4352 50.57 25.9352 50.57C25.6052 50.57 25.3152 50.65 25.0552 50.81C24.7952 50.97 24.6052 51.19 24.4652 51.47C24.3252 51.75 24.2552 52.07 24.2552 52.43C24.2552 52.8 24.3252 53.13 24.4652 53.42C24.6052 53.71 24.7952 53.93 25.0552 54.09C25.3152 54.25 25.6052 54.33 25.9352 54.33C26.4352 54.33 26.8452 54.16 27.1552 53.81ZM30.2322 54.73C29.8522 54.51 29.5522 54.21 29.3422 53.81C29.1222 53.42 29.0222 52.97 29.0222 52.45C29.0222 51.94 29.1222 51.49 29.3422 51.09C29.5522 50.7 29.8522 50.39 30.2322 50.17C30.6122 49.95 31.0522 49.84 31.5522 49.84C32.0422 49.84 32.4822 49.95 32.8622 50.17C33.2422 50.39 33.5422 50.7 33.7622 51.09C33.9722 51.49 34.0822 51.94 34.0822 52.45C34.0822 52.97 33.9722 53.42 33.7622 53.81C33.5422 54.21 33.2422 54.51 32.8622 54.73C32.4822 54.95 32.0422 55.06 31.5522 55.06C31.0522 55.06 30.6122 54.95 30.2322 54.73ZM32.4322 54.09C32.6922 53.93 32.8922 53.71 33.0322 53.42C33.1722 53.14 33.2422 52.81 33.2422 52.45C33.2422 52.09 33.1722 51.77 33.0322 51.48C32.8922 51.2 32.6922 50.97 32.4322 50.81C32.1722 50.65 31.8822 50.57 31.5522 50.57C31.2122 50.57 30.9222 50.65 30.6622 50.81C30.4022 50.97 30.2122 51.2 30.0722 51.48C29.9322 51.77 29.8622 52.09 29.8622 52.45C29.8622 52.81 29.9322 53.14 30.0722 53.42C30.2122 53.71 30.4022 53.93 30.6622 54.09C30.9222 54.25 31.2122 54.33 31.5522 54.33C31.8822 54.33 32.1722 54.25 32.4322 54.09ZM35.443 53.32C35.453 53.63 35.583 53.88 35.843 54.07C36.103 54.27 36.433 54.36 36.843 54.36C37.203 54.36 37.493 54.29 37.713 54.15C37.933 54.01 38.053 53.82 38.053 53.58C38.053 53.38 37.993 53.23 37.893 53.12C37.783 53.02 37.643 52.94 37.473 52.9C37.303 52.86 37.063 52.82 36.753 52.78C36.313 52.73 35.953 52.66 35.673 52.57C35.393 52.49 35.163 52.35 34.993 52.16C34.813 51.97 34.733 51.71 34.733 51.37C34.733 51.07 34.813 50.81 34.983 50.57C35.153 50.34 35.383 50.16 35.683 50.03C35.973 49.9 36.303 49.83 36.673 49.83C37.273 49.83 37.753 49.97 38.133 50.25C38.513 50.53 38.723 50.93 38.763 51.45H37.943C37.903 51.19 37.773 50.97 37.553 50.79C37.323 50.62 37.043 50.53 36.703 50.53C36.353 50.53 36.073 50.61 35.863 50.75C35.643 50.89 35.543 51.08 35.543 51.31C35.543 51.49 35.593 51.62 35.693 51.71C35.793 51.81 35.913 51.87 36.073 51.9C36.233 51.94 36.473 51.97 36.793 52.01C37.233 52.07 37.603 52.14 37.893 52.23C38.183 52.33 38.413 52.48 38.593 52.68C38.773 52.89 38.863 53.17 38.863 53.52C38.863 53.83 38.773 54.1 38.593 54.33C38.413 54.57 38.163 54.75 37.863 54.87C37.553 55 37.213 55.06 36.843 55.06C36.173 55.06 35.633 54.91 35.233 54.6C34.833 54.3 34.623 53.87 34.623 53.32H35.443ZM40.3832 48.08C40.4832 48.18 40.5332 48.31 40.5332 48.46C40.5332 48.62 40.4832 48.74 40.3832 48.84C40.2832 48.94 40.1532 48.99 40.0032 48.99C39.8432 48.99 39.7232 48.94 39.6232 48.84C39.5232 48.74 39.4732 48.62 39.4732 48.46C39.4732 48.31 39.5232 48.18 39.6232 48.08C39.7232 47.98 39.8432 47.93 40.0032 47.93C40.1532 47.93 40.2832 47.98 40.3832 48.08ZM39.5932 49.9H40.4132V55H39.5932V49.9ZM41.6766 50.65H40.7566V49.9H41.6766V48.47H42.4966V49.9H43.7866V50.65H42.4966V53.66C42.4966 53.88 42.5366 54.03 42.6166 54.12C42.6966 54.21 42.8466 54.25 43.0566 54.25H43.9466V55H43.0066C42.5266 55 42.1766 54.9 41.9766 54.68C41.7766 54.47 41.6766 54.13 41.6766 53.67V50.65ZM46.8671 48H51.2171V48.8H47.7371V51.14H50.6171V51.94H47.7371V55H46.8671V48ZM51.5695 51.08C51.7695 50.69 52.0595 50.39 52.4295 50.17C52.7895 49.95 53.2095 49.84 53.6895 49.84C54.1495 49.84 54.5695 49.94 54.9295 50.13C55.2895 50.33 55.5695 50.61 55.7795 50.97C55.9795 51.34 56.0895 51.77 56.1095 52.26C56.1095 52.34 56.0995 52.45 56.0895 52.61H52.1295V52.68C52.1395 53.18 52.2895 53.58 52.5895 53.88C52.8795 54.18 53.2595 54.33 53.7395 54.33C54.0995 54.33 54.4095 54.24 54.6695 54.06C54.9295 53.88 55.0995 53.62 55.1895 53.29H56.0195C55.9195 53.81 55.6695 54.24 55.2695 54.57C54.8695 54.9 54.3795 55.06 53.7995 55.06C53.2895 55.06 52.8495 54.96 52.4695 54.74C52.0895 54.52 51.7895 54.22 51.5795 53.82C51.3695 53.42 51.2695 52.97 51.2695 52.45C51.2695 51.93 51.3695 51.48 51.5695 51.08ZM55.2595 51.93C55.2195 51.5 55.0495 51.16 54.7695 50.92C54.4895 50.68 54.1295 50.56 53.6995 50.56C53.3095 50.56 52.9695 50.69 52.6795 50.94C52.3795 51.2 52.2195 51.53 52.1795 51.93H55.2595ZM56.9652 51.08C57.1652 50.69 57.4552 50.39 57.8252 50.17C58.1852 49.95 58.6052 49.84 59.0852 49.84C59.5452 49.84 59.9652 49.94 60.3252 50.13C60.6852 50.33 60.9652 50.61 61.1752 50.97C61.3752 51.34 61.4852 51.77 61.5052 52.26C61.5052 52.34 61.4952 52.45 61.4852 52.61H57.5252V52.68C57.5352 53.18 57.6852 53.58 57.9852 53.88C58.2752 54.18 58.6552 54.33 59.1352 54.33C59.4952 54.33 59.8052 54.24 60.0652 54.06C60.3252 53.88 60.4952 53.62 60.5852 53.29H61.4152C61.3152 53.81 61.0652 54.24 60.6652 54.57C60.2652 54.9 59.7752 55.06 59.1952 55.06C58.6852 55.06 58.2452 54.96 57.8652 54.74C57.4852 54.52 57.1852 54.22 56.9752 53.82C56.7652 53.42 56.6652 52.97 56.6652 52.45C56.6652 51.93 56.7652 51.48 56.9652 51.08ZM60.6552 51.93C60.6152 51.5 60.4452 51.16 60.1652 50.92C59.8852 50.68 59.5252 50.56 59.0952 50.56C58.7052 50.56 58.3652 50.69 58.0752 50.94C57.7752 51.2 57.6152 51.53 57.5752 51.93H60.6552ZM62.3009 50.35C62.4009 50.25 62.5409 50.19 62.7109 50.19C62.8709 50.19 63.0109 50.25 63.1209 50.35C63.2209 50.45 63.2809 50.59 63.2809 50.75C63.2809 50.92 63.2209 51.06 63.1209 51.16C63.0109 51.26 62.8709 51.31 62.7109 51.31C62.5409 51.31 62.4009 51.26 62.3009 51.16C62.1909 51.06 62.1409 50.92 62.1409 50.75C62.1409 50.59 62.1909 50.45 62.3009 50.35ZM62.3009 54.1C62.4009 54 62.5409 53.94 62.7109 53.94C62.8709 53.94 63.0109 54 63.1209 54.1C63.2209 54.2 63.2809 54.34 63.2809 54.5C63.2809 54.67 63.2209 54.81 63.1209 54.91C63.0109 55.01 62.8709 55.06 62.7109 55.06C62.5409 55.06 62.4009 55.01 62.3009 54.91C62.1909 54.81 62.1409 54.67 62.1409 54.5C62.1409 54.34 62.1909 54.2 62.3009 54.1ZM66.6386 55V48H67.4386L71.1986 53.4V48H72.0486V55H71.2486L67.4886 49.6V55H66.6386ZM75.6362 51.93C76.0262 51.59 76.3262 51.29 76.5262 51.01C76.7262 50.73 76.8262 50.42 76.8262 50.07C76.8262 49.64 76.6862 49.3 76.4062 49.05C76.1262 48.81 75.7562 48.68 75.2962 48.68C74.8362 48.68 74.4762 48.82 74.2062 49.1C73.9262 49.38 73.7962 49.76 73.7962 50.24V50.37H72.9562V50.19C72.9562 49.75 73.0462 49.36 73.2462 49.02C73.4362 48.68 73.7062 48.42 74.0662 48.22C74.4262 48.03 74.8362 47.93 75.2962 47.93C76.0362 47.93 76.6262 48.12 77.0462 48.5C77.4662 48.88 77.6862 49.39 77.6862 50.03C77.6862 50.37 77.6162 50.67 77.4862 50.94C77.3562 51.22 77.1862 51.47 76.9862 51.69C76.7762 51.91 76.5062 52.17 76.1762 52.45L74.0762 54.23H77.7362V55H72.9162V54.29L75.6362 51.93ZM78.4505 51.34C78.4505 50.68 78.5605 50.1 78.7805 49.58C79.0005 49.07 79.3205 48.67 79.7205 48.38C80.1205 48.09 80.5905 47.94 81.1105 47.94C81.6205 47.94 82.0805 48.09 82.4805 48.38C82.8805 48.67 83.2005 49.07 83.4205 49.58C83.6405 50.1 83.7605 50.68 83.7605 51.34V51.66C83.7605 52.35 83.6405 52.95 83.4205 53.46C83.2005 53.98 82.8905 54.37 82.4905 54.65C82.0905 54.93 81.6305 55.06 81.1105 55.06C80.5805 55.06 80.1205 54.93 79.7205 54.65C79.3205 54.37 79.0005 53.98 78.7805 53.46C78.5605 52.95 78.4505 52.35 78.4505 51.66V51.34ZM82.6805 49.95C82.5305 49.55 82.3205 49.25 82.0505 49.03C81.7805 48.82 81.4705 48.71 81.1105 48.71C80.7505 48.71 80.4305 48.82 80.1605 49.03C79.8805 49.25 79.6705 49.55 79.5205 49.95C79.3705 50.35 79.3005 50.83 79.3005 51.37V51.63C79.3005 52.18 79.3705 52.65 79.5205 53.05C79.6705 53.45 79.8805 53.76 80.1605 53.97C80.4305 54.19 80.7505 54.29 81.1105 54.29C81.4705 54.29 81.7805 54.19 82.0505 53.97C82.3205 53.76 82.5305 53.45 82.6805 53.05C82.8305 52.65 82.9105 52.18 82.9105 51.63V51.37C82.9105 50.83 82.8305 50.35 82.6805 49.95Z" fill="white"/>
<path d="M11 57.6H84.2305V58.2H11V57.6Z" fill="white"/>
<path d="M121.812 28.75H114.812C114.696 28.75 114.585 28.7961 114.503 28.8781C114.421 28.9602 114.375 29.0715 114.375 29.1875V31.375H112.188C112.071 31.375 111.96 31.4211 111.878 31.5031C111.796 31.5852 111.75 31.6965 111.75 31.8125V38.8125C111.75 38.9285 111.796 39.0398 111.878 39.1219C111.96 39.2039 112.071 39.25 112.188 39.25H119.188C119.304 39.25 119.415 39.2039 119.497 39.1219C119.579 39.0398 119.625 38.9285 119.625 38.8125V36.625H121.812C121.929 36.625 122.04 36.5789 122.122 36.4969C122.204 36.4148 122.25 36.3035 122.25 36.1875V29.1875C122.25 29.0715 122.204 28.9602 122.122 28.8781C122.04 28.7961 121.929 28.75 121.812 28.75ZM118.75 38.375H112.625V32.25H118.75V38.375ZM121.375 35.75H119.625V31.8125C119.625 31.6965 119.579 31.5852 119.497 31.5031C119.415 31.4211 119.304 31.375 119.188 31.375H115.25V29.625H121.375V35.75Z" fill="white"/>
</svg>
