<svg width="17" height="17" viewBox="0 0 17 17" fill="none" xmlns="http://www.w3.org/2000/svg">
<path fill-rule="evenodd" clip-rule="evenodd" d="M7.34184 10.5503L10.3893 15.4945C10.5227 15.7111 10.731 15.7086 10.8152 15.697C10.8993 15.6853 11.1018 15.6336 11.1752 15.3878L14.986 2.51697C15.0527 2.28947 14.9302 2.13447 14.8752 2.07947C14.8218 2.02447 14.6693 1.90697 14.4485 1.96947L1.56851 5.74113C1.32434 5.8128 1.27101 6.0178 1.25934 6.10197C1.24767 6.1878 1.24434 6.4003 1.46017 6.53613L6.46101 9.66363L10.8793 5.19863C11.1218 4.95363 11.5177 4.95113 11.7635 5.19363C12.0093 5.43613 12.011 5.8328 11.7685 6.0778L7.34184 10.5503ZM10.7502 16.952C10.1702 16.952 9.63851 16.657 9.32517 16.1503L6.09434 10.9078L0.797673 7.5953C0.226839 7.2378 -0.0714942 6.60113 0.0210058 5.93197C0.112672 5.2628 0.571839 4.73113 1.21684 4.54197L14.0968 0.770302C14.6893 0.596968 15.3243 0.761135 15.761 1.19613C16.1977 1.6353 16.3602 2.27697 16.1835 2.87197L12.3727 15.742C12.1818 16.3895 11.6485 16.847 10.981 16.9361C10.9027 16.9461 10.8268 16.952 10.7502 16.952Z" fill="#696969"/>
</svg>
